<?xml version="1.0" encoding="UTF-8" standalone="no"?>
<!-- Created with Inkscape (http://www.inkscape.org/) -->

<svg
   xmlns:dc="http://purl.org/dc/elements/1.1/"
   xmlns:cc="http://creativecommons.org/ns#"
   xmlns:rdf="http://www.w3.org/1999/02/22-rdf-syntax-ns#"
   xmlns:svg="http://www.w3.org/2000/svg"
   xmlns="http://www.w3.org/2000/svg"
   xmlns:sodipodi="http://sodipodi.sourceforge.net/DTD/sodipodi-0.dtd"
   xmlns:inkscape="http://www.inkscape.org/namespaces/inkscape"
   width="150"
   height="147"
   viewBox="0 0 150.00001 147"
   id="svg4855"
   version="1.1"
   inkscape:version="0.91 r13725"
   sodipodi:docname="octicon.svg">
  <defs
     id="defs4857" />
  <sodipodi:namedview
     id="base"
     pagecolor="#ffffff"
     bordercolor="#666666"
     borderopacity="1.0"
     inkscape:pageopacity="0.0"
     inkscape:pageshadow="2"
     inkscape:zoom="1.4"
     inkscape:cx="13.154556"
     inkscape:cy="571.45825"
     inkscape:document-units="px"
     inkscape:current-layer="layer1"
     showgrid="false"
     inkscape:window-width="3000"
     inkscape:window-height="1947"
     inkscape:window-x="-8"
     inkscape:window-y="-8"
     inkscape:window-maximized="1"
     units="px" />
  <metadata
     id="metadata4860">
    <rdf:RDF>
      <cc:Work
         rdf:about="">
        <dc:format>image/svg+xml</dc:format>
        <dc:type
           rdf:resource="http://purl.org/dc/dcmitype/StillImage" />
        <dc:title></dc:title>
      </cc:Work>
    </rdf:RDF>
  </metadata>
  <g
     inkscape:label="Layer 1"
     inkscape:groupmode="layer"
     id="layer1"
     transform="translate(0,-905.36226)">
    <path
       inkscape:connector-curvature="0"
       id="path28"
       style="fill:#1b1817;fill-opacity:1;fill-rule:evenodd;stroke:none"
       d="M 75.485001,905.12034 C 33.80125,905.12034 0,938.91409 0,980.60534 c 0,33.34996 21.62875,61.64496 51.62125,71.62626 3.7725,0.6987 5.1575,-1.6375 5.1575,-3.6313 0,-1.7987 -0.07,-7.7462 -0.1025,-14.0537 -21,4.5662 -25.43125,-8.9063 -25.43125,-8.9063 -3.43375,-8.7237 -8.38125,-11.045 -8.38125,-11.045 -6.84875,-4.685 0.51625,-4.5887 0.51625,-4.5887 7.58,0.5325 11.57125,7.78 11.57125,7.78 6.7325,11.5387 17.65875,8.2025 21.96625,6.2737 0.67875,-4.8775 2.63375,-8.2087 4.7925,-10.0937 -16.76625,-1.9075 -34.39125,-8.3813 -34.39125,-37.30501 0,-8.24 2.94875,-14.975 7.7775,-20.26125 -0.78375,-1.90125 -3.3675,-9.57875 0.7325,-19.97625 0,0 6.33875,-2.0275 20.7625,7.73875 6.02125,-1.6725 12.478751,-2.51125 18.893751,-2.54125 6.415,0.03 12.8775,0.86875 18.91,2.54125 14.407499,-9.76625 20.737499,-7.73875 20.737499,-7.73875 4.10875,10.3975 1.525,18.075 0.74125,19.97625 4.84,5.28625 7.7675,12.02125 7.7675,20.26125 0,28.99371 -17.65875,35.37621 -34.467499,37.24501 2.7075,2.3425 5.12,6.9362 5.12,13.9787 0,10.1 -0.0862,18.2288 -0.0862,20.715 0,2.01 1.3575,4.3625 5.18375,3.6225 29.977499,-9.9925 51.578749,-38.2775 51.578749,-71.61746 0,-41.69125 -33.79625,-75.485 -75.484999,-75.485" />
  </g>
</svg>
